<mxfile host="drawio-plugin" modified="2022-09-26T13:42:04.289Z" agent="5.0 (Windows NT 6.2; Win64; x64) AppleWebKit/537.36 (KHTML, like Gecko) Chrome/97.0.4692.45 Safari/537.36" version="15.5.4" etag="M8i0dx8jGBLA7goMNCRG" type="embed"><diagram id="MS3gSWRfo7CBr7CDkreL" name="数据库和SQL"><mxGraphModel dx="2000" dy="976" grid="0" gridSize="10" guides="1" tooltips="1" connect="1" arrows="1" fold="1" page="0" pageScale="1" pageWidth="1169" pageHeight="827" background="none" math="0" shadow="0"><root><mxCell id="0"/><mxCell id="1" parent="0"/><mxCell id="83" value="他仨啥关系" style="swimlane;fontStyle=0;childLayout=stackLayout;horizontal=1;startSize=30;horizontalStack=0;resizeParent=1;resizeParentMax=0;resizeLast=0;collapsible=1;marginBottom=0;" parent="1" vertex="1"><mxGeometry x="-1178" y="-43" width="150" height="120" as="geometry"><mxRectangle x="-1178" y="-43" width="76" height="29" as="alternateBounds"/></mxGeometry></mxCell><mxCell id="84" value="数据库：Datebase" style="text;strokeColor=none;fillColor=none;align=left;verticalAlign=middle;spacingLeft=4;spacingRight=4;overflow=hidden;points=[[0,0.5],[1,0.5]];portConstraint=eastwest;rotatable=0;" parent="83" vertex="1"><mxGeometry y="30" width="150" height="30" as="geometry"/></mxCell><mxCell id="85" value="SQL：结构化查询语言" style="text;strokeColor=none;fillColor=none;align=left;verticalAlign=middle;spacingLeft=4;spacingRight=4;overflow=hidden;points=[[0,0.5],[1,0.5]];portConstraint=eastwest;rotatable=0;" parent="83" vertex="1"><mxGeometry y="60" width="150" height="30" as="geometry"/></mxCell><mxCell id="86" value="数据库管理系统：DBMS" style="text;strokeColor=none;fillColor=none;align=left;verticalAlign=middle;spacingLeft=4;spacingRight=4;overflow=hidden;points=[[0,0.5],[1,0.5]];portConstraint=eastwest;rotatable=0;" parent="83" vertex="1"><mxGeometry y="90" width="150" height="30" as="geometry"/></mxCell><mxCell id="95" style="edgeStyle=none;html=1;exitX=1;exitY=1;exitDx=0;exitDy=0;entryX=0;entryY=0.5;entryDx=0;entryDy=0;" parent="1" source="87" target="94" edge="1"><mxGeometry relative="1" as="geometry"/></mxCell><mxCell id="87" value="客户1" style="ellipse;whiteSpace=wrap;html=1;aspect=fixed;" parent="1" vertex="1"><mxGeometry x="-979" y="-37" width="46" height="46" as="geometry"/></mxCell><mxCell id="96" value="" style="edgeStyle=none;html=1;" parent="1" source="88" target="94" edge="1"><mxGeometry relative="1" as="geometry"/></mxCell><mxCell id="88" value="客户1" style="ellipse;whiteSpace=wrap;html=1;aspect=fixed;" parent="1" vertex="1"><mxGeometry x="-979" y="43" width="46" height="46" as="geometry"/></mxCell><mxCell id="97" style="edgeStyle=none;html=1;entryX=0.009;entryY=0.578;entryDx=0;entryDy=0;entryPerimeter=0;" parent="1" source="89" target="94" edge="1"><mxGeometry relative="1" as="geometry"/></mxCell><mxCell id="89" value="客户1" style="ellipse;whiteSpace=wrap;html=1;aspect=fixed;" parent="1" vertex="1"><mxGeometry x="-979" y="112" width="46" height="46" as="geometry"/></mxCell><mxCell id="99" value="" style="edgeStyle=none;html=1;" parent="1" source="94" target="88" edge="1"><mxGeometry relative="1" as="geometry"/></mxCell><mxCell id="102" style="edgeStyle=none;html=1;exitX=0;exitY=0.25;exitDx=0;exitDy=0;entryX=1;entryY=0.5;entryDx=0;entryDy=0;" parent="1" source="94" target="87" edge="1"><mxGeometry relative="1" as="geometry"><mxPoint x="-915" y="-21" as="targetPoint"/></mxGeometry></mxCell><mxCell id="104" style="edgeStyle=none;html=1;exitX=0;exitY=0.75;exitDx=0;exitDy=0;entryX=1;entryY=0.5;entryDx=0;entryDy=0;" parent="1" source="94" target="89" edge="1"><mxGeometry relative="1" as="geometry"/></mxCell><mxCell id="108" style="edgeStyle=none;html=1;" parent="1" source="94" target="106" edge="1"><mxGeometry relative="1" as="geometry"/></mxCell><mxCell id="94" value="" style="image;html=1;image=img/lib/clip_art/computers/Server_Rack_Partial_128x128.png" parent="1" vertex="1"><mxGeometry x="-859" y="26" width="80" height="80" as="geometry"/></mxCell><mxCell id="98" value="web服务器" style="text;html=1;align=center;verticalAlign=middle;resizable=0;points=[];autosize=1;strokeColor=none;fillColor=none;" parent="1" vertex="1"><mxGeometry x="-842" y="117" width="68" height="18" as="geometry"/></mxCell><mxCell id="109" style="edgeStyle=none;html=1;" parent="1" source="106" target="94" edge="1"><mxGeometry relative="1" as="geometry"/></mxCell><mxCell id="137" value="数据库管理系统(DBMS)可以管理多个数据库，一般开发人员会针对每一个应用创建一个数据库。为保存&lt;br/&gt;应用中实体的数据，一般会在数据库创建多个表，以保存程序中实体用户的数据。&amp;nbsp;" style="text;html=1;align=center;verticalAlign=middle;resizable=0;points=[];autosize=1;strokeColor=none;fillColor=none;" parent="1" vertex="1"><mxGeometry x="-953" y="-125" width="557" height="32" as="geometry"/></mxCell><mxCell id="138" value="" style="group" parent="1" vertex="1" connectable="0"><mxGeometry x="-701" y="-43" width="369" height="231" as="geometry"/></mxCell><mxCell id="106" value="Oracle&lt;br&gt;数据库管理系统" style="rounded=0;whiteSpace=wrap;html=1;" parent="138" vertex="1"><mxGeometry y="46" width="69" height="126" as="geometry"/></mxCell><mxCell id="110" value="数据库" style="strokeWidth=2;html=1;shape=mxgraph.flowchart.direct_data;whiteSpace=wrap;" parent="138" vertex="1"><mxGeometry x="125" y="12" width="100" height="60" as="geometry"/></mxCell><mxCell id="111" value="数据库" style="strokeWidth=2;html=1;shape=mxgraph.flowchart.direct_data;whiteSpace=wrap;" parent="138" vertex="1"><mxGeometry x="125" y="145" width="100" height="60" as="geometry"/></mxCell><mxCell id="121" value="" style="endArrow=classic;startArrow=classic;html=1;entryX=0;entryY=0.5;entryDx=0;entryDy=0;entryPerimeter=0;exitX=1;exitY=0.5;exitDx=0;exitDy=0;" parent="138" source="106" target="110" edge="1"><mxGeometry width="50" height="50" relative="1" as="geometry"><mxPoint x="4" y="300" as="sourcePoint"/><mxPoint x="54" y="250" as="targetPoint"/></mxGeometry></mxCell><mxCell id="124" value="" style="endArrow=classic;startArrow=classic;html=1;entryX=0;entryY=0.5;entryDx=0;entryDy=0;entryPerimeter=0;exitX=1;exitY=0.5;exitDx=0;exitDy=0;" parent="138" source="106" target="111" edge="1"><mxGeometry width="50" height="50" relative="1" as="geometry"><mxPoint x="64" y="308" as="sourcePoint"/><mxPoint x="114" y="258" as="targetPoint"/></mxGeometry></mxCell><mxCell id="125" value="SQL" style="text;html=1;align=center;verticalAlign=middle;resizable=0;points=[];autosize=1;strokeColor=none;fillColor=none;" parent="138" vertex="1"><mxGeometry x="76" y="48" width="34" height="18" as="geometry"/></mxCell><mxCell id="126" value="SQL" style="text;html=1;align=center;verticalAlign=middle;resizable=0;points=[];autosize=1;strokeColor=none;fillColor=none;" parent="138" vertex="1"><mxGeometry x="76" y="149" width="34" height="18" as="geometry"/></mxCell><mxCell id="127" value="表1" style="rounded=1;whiteSpace=wrap;html=1;" parent="138" vertex="1"><mxGeometry x="302" width="67" height="33" as="geometry"/></mxCell><mxCell id="134" style="edgeStyle=none;html=1;entryX=0;entryY=0.5;entryDx=0;entryDy=0;" parent="138" source="110" target="127" edge="1"><mxGeometry relative="1" as="geometry"/></mxCell><mxCell id="128" value="&lt;span&gt;表2&lt;/span&gt;" style="rounded=1;whiteSpace=wrap;html=1;" parent="138" vertex="1"><mxGeometry x="302" y="53" width="67" height="33" as="geometry"/></mxCell><mxCell id="132" style="edgeStyle=none;html=1;entryX=0;entryY=0.5;entryDx=0;entryDy=0;" parent="138" source="110" target="128" edge="1"><mxGeometry relative="1" as="geometry"/></mxCell><mxCell id="129" value="&lt;span&gt;表1&lt;/span&gt;" style="rounded=1;whiteSpace=wrap;html=1;" parent="138" vertex="1"><mxGeometry x="302" y="134" width="67" height="33" as="geometry"/></mxCell><mxCell id="130" value="&lt;span&gt;表2&lt;/span&gt;" style="rounded=1;whiteSpace=wrap;html=1;" parent="138" vertex="1"><mxGeometry x="302" y="198" width="67" height="33" as="geometry"/></mxCell><mxCell id="135" style="edgeStyle=none;html=1;entryX=0;entryY=0.5;entryDx=0;entryDy=0;" parent="138" source="111" target="129" edge="1"><mxGeometry relative="1" as="geometry"/></mxCell><mxCell id="136" style="edgeStyle=none;html=1;entryX=0;entryY=0.5;entryDx=0;entryDy=0;" parent="138" source="111" target="130" edge="1"><mxGeometry relative="1" as="geometry"/></mxCell><mxCell id="139" value="数据库 和 SQL" style="text;html=1;align=center;verticalAlign=middle;resizable=0;points=[];autosize=1;strokeColor=none;fillColor=none;" parent="1" vertex="1"><mxGeometry x="-716" y="-242" width="89" height="18" as="geometry"/></mxCell></root></mxGraphModel></diagram></mxfile>